<?xml version="1.0" standalone="no"?>
<!DOCTYPE svg PUBLIC "-//W3C//DTD SVG 20010904//EN"
 "http://www.w3.org/TR/2001/REC-SVG-20010904/DTD/svg10.dtd">
<svg version="1.0" xmlns="http://www.w3.org/2000/svg"
 width="512.000000pt" height="512.000000pt" viewBox="0 0 512.000000 512.000000"
 preserveAspectRatio="xMidYMid meet">

<g transform="translate(0.000000,512.000000) scale(0.100000,-0.100000)"
fill="#000000" stroke="none">
<path d="M2170 5109 c-546 -30 -1056 -133 -1371 -276 -217 -99 -367 -249 -386
-389 -5 -40 -3 -48 23 -75 43 -44 158 -121 259 -171 375 -188 924 -286 1705
-304 856 -20 1600 91 2025 304 101 50 216 127 259 171 26 27 28 35 22 77 -20
149 -175 295 -426 404 -461 200 -1305 304 -2110 259z"/>
<path d="M410 3636 l0 -474 53 -45 c279 -237 800 -383 1562 -438 219 -16 850
-16 1070 -1 770 56 1289 203 1573 447 l42 37 0 474 c0 261 -2 474 -5 474 -3 0
-23 -11 -43 -24 -58 -36 -213 -113 -298 -146 -265 -106 -632 -181 -1099 -227
-230 -22 -1127 -26 -1350 -5 -498 46 -823 109 -1109 214 -109 40 -292 127
-351 167 -16 12 -33 21 -37 21 -5 0 -8 -213 -8 -474z"/>
<path d="M410 2406 l0 -474 48 -40 c251 -209 679 -349 1277 -416 470 -53 1175
-53 1655 0 589 65 1047 216 1283 423 l37 33 0 474 c0 261 -3 474 -7 474 -3 0
-27 -13 -53 -30 -73 -47 -265 -135 -380 -174 -285 -96 -614 -157 -1080 -198
-231 -21 -1075 -17 -1315 5 -640 60 -1089 176 -1394 361 -32 20 -61 36 -65 36
-3 0 -6 -213 -6 -474z"/>
<path d="M412 1147 l3 -512 34 -63 c149 -275 696 -470 1541 -549 259 -24 881
-24 1140 0 845 79 1391 273 1541 549 l34 63 3 513 3 512 -58 -37 c-84 -53
-242 -125 -378 -173 -291 -100 -639 -164 -1110 -202 -212 -17 -996 -17 -1210
0 -669 53 -1160 176 -1478 370 l-68 41 3 -512z"/>
</g>
</svg>
